{
	"asset":{
		"generator":"Khronos glTF Blender I/O v4.5.48",
		"version":"2.0"
	},
	"scene":0,
	"scenes":[
		{
			"name":"Scene",
			"nodes":[
				0,
				1,
				2,
				3,
				4,
				5,
				6,
				7,
				8,
				9,
				10,
				11,
				12,
				13,
				14,
				15,
				16,
				17
			]
		}
	],
	"nodes":[
		{
			"camera":0,
			"name":"Camera",
			"rotation":[
				-0.26509714126586914,
				0.168415829539299,
				0.04708678647875786,
				0.9482312798500061
			],
			"translation":[
				11.567776679992676,
				15.925529479980469,
				27.1618595123291
			]
		},
		{
			"mesh":0,
			"name":"Cube.001",
			"scale":[
				1,
				10,
				1
			],
			"translation":[
				-5.652587890625,
				8.941398620605469,
				4.660274505615234
			]
		},
		{
			"mesh":1,
			"name":"Cube",
			"scale":[
				92,
				0.30000001192092896,
				92
			],
			"translation":[
				0,
				-1.3182015419006348,
				0
			]
		},
		{
			"mesh":0,
			"name":"Cube.002",
			"scale":[
				1,
				10,
				1
			],
			"translation":[
				5.347412109375,
				8.941398620605469,
				4.660274505615234
			]
		},
		{
			"mesh":0,
			"name":"Cube.003",
			"scale":[
				1,
				10,
				1
			],
			"translation":[
				-5.652587890625,
				8.941398620605469,
				-4.3397216796875
			]
		},
		{
			"mesh":0,
			"name":"Cube.004",
			"scale":[
				1,
				10,
				1
			],
			"translation":[
				5.347412109375,
				8.941398620605469,
				-4.3397216796875
			]
		},
		{
			"mesh":0,
			"name":"Cube.005",
			"rotation":[
				0,
				0,
				-0.7071068286895752,
				0.7071067094802856
			],
			"scale":[
				1,
				9.999998092651367,
				1
			],
			"translation":[
				-0.03148651123046875,
				3.9413986206054688,
				4.660274505615234
			]
		},
		{
			"mesh":0,
			"name":"Cube.006",
			"rotation":[
				0,
				0,
				-0.7071068286895752,
				0.7071067094802856
			],
			"scale":[
				1,
				9.999998092651367,
				1
			],
			"translation":[
				-0.03148651123046875,
				3.9413986206054688,
				-4.3397216796875
			]
		},
		{
			"mesh":0,
			"name":"Cube.007",
			"rotation":[
				-0.4999999403953552,
				0.4999999403953552,
				-0.5000000596046448,
				0.5000000596046448
			],
			"scale":[
				1,
				10,
				1
			],
			"translation":[
				-5.652587890625,
				3.9413986206054688,
				-0.3397216796875
			]
		},
		{
			"mesh":0,
			"name":"Cube.008",
			"rotation":[
				-0.4999999403953552,
				0.4999999403953552,
				-0.5000000596046448,
				0.5000000596046448
			],
			"scale":[
				1,
				10,
				1
			],
			"translation":[
				5.347412109375,
				3.9413986206054688,
				-0.3397216796875
			]
		},
		{
			"mesh":0,
			"name":"Cube.009",
			"rotation":[
				0,
				0,
				-0.7071068286895752,
				0.7071067094802856
			],
			"scale":[
				1,
				9.999998092651367,
				1
			],
			"translation":[
				-0.03148651123046875,
				13.941398620605469,
				4.660274505615234
			]
		},
		{
			"mesh":0,
			"name":"Cube.010",
			"rotation":[
				0,
				0,
				-0.7071068286895752,
				0.7071067094802856
			],
			"scale":[
				1,
				9.999998092651367,
				1
			],
			"translation":[
				-0.03148651123046875,
				13.941398620605469,
				-4.3397216796875
			]
		},
		{
			"mesh":0,
			"name":"Cube.011",
			"rotation":[
				-0.4999999403953552,
				0.4999999403953552,
				-0.5000000596046448,
				0.5000000596046448
			],
			"scale":[
				1,
				10,
				1
			],
			"translation":[
				-5.652587890625,
				13.941398620605469,
				-0.3397216796875
			]
		},
		{
			"mesh":0,
			"name":"Cube.012",
			"rotation":[
				-0.4999999403953552,
				0.4999999403953552,
				-0.5000000596046448,
				0.5000000596046448
			],
			"scale":[
				1,
				10,
				1
			],
			"translation":[
				5.347412109375,
				13.941398620605469,
				-0.3397216796875
			]
		},
		{
			"mesh":2,
			"name":"Sphere",
			"scale":[
				5,
				5,
				5
			],
			"translation":[
				-73.62032318115234,
				3.450321674346924,
				-39.77627182006836
			]
		},
		{
			"mesh":0,
			"name":"Cube.013",
			"rotation":[
				-0.11725806444883347,
				-0.3874351680278778,
				0.2630155384540558,
				0.8757667541503906
			],
			"scale":[
				10.200002670288086,
				1.399999976158142,
				1.9800001382827759
			],
			"translation":[
				-78.87782287597656,
				5.8856964111328125,
				-78.09927368164062
			]
		},
		{
			"mesh":2,
			"name":"Sphere.001",
			"scale":[
				5,
				5,
				5
			],
			"translation":[
				-57.67552185058594,
				8.354255676269531,
				-56.81394958496094
			]
		},
		{
			"mesh":2,
			"name":"Sphere.002",
			"scale":[
				5,
				5,
				5
			],
			"translation":[
				-41.67675018310547,
				14.476095199584961,
				-73.53560638427734
			]
		}
	],
	"cameras":[
		{
			"name":"Camera.001",
			"perspective":{
				"aspectRatio":1.7777777777777777,
				"yfov":0.6911503672599792,
				"zfar":1000,
				"znear":0.009999999776482582
			},
			"type":"perspective"
		}
	],
	"materials":[
		{
			"doubleSided":true,
			"name":"Material.001",
			"pbrMetallicRoughness":{
				"baseColorFactor":[
					0.800000011920929,
					0.800000011920929,
					0.800000011920929,
					1
				],
				"metallicFactor":0,
				"roughnessFactor":0.5
			}
		}
	],
	"meshes":[
		{
			"name":"Cube.001",
			"primitives":[
				{
					"attributes":{
						"POSITION":0,
						"NORMAL":1,
						"TEXCOORD_0":2,
						"TANGENT":3
					},
					"indices":4,
					"material":0
				}
			]
		},
		{
			"name":"Cube.002",
			"primitives":[
				{
					"attributes":{
						"POSITION":5,
						"NORMAL":6,
						"TEXCOORD_0":7,
						"TANGENT":8
					},
					"indices":4,
					"material":0
				}
			]
		},
		{
			"name":"Sphere",
			"primitives":[
				{
					"attributes":{
						"POSITION":9,
						"NORMAL":10,
						"TEXCOORD_0":11,
						"TANGENT":12
					},
					"indices":13,
					"material":0
				}
			]
		}
	],
	"accessors":[
		{
			"bufferView":0,
			"componentType":5126,
			"count":24,
			"max":[
				1,
				1,
				1
			],
			"min":[
				-1,
				-1,
				-1
			],
			"type":"VEC3"
		},
		{
			"bufferView":1,
			"componentType":5126,
			"count":24,
			"type":"VEC3"
		},
		{
			"bufferView":2,
			"componentType":5126,
			"count":24,
			"type":"VEC2"
		},
		{
			"bufferView":3,
			"componentType":5126,
			"count":24,
			"type":"VEC4"
		},
		{
			"bufferView":4,
			"componentType":5123,
			"count":36,
			"type":"SCALAR"
		},
		{
			"bufferView":5,
			"componentType":5126,
			"count":24,
			"max":[
				1,
				1,
				1
			],
			"min":[
				-1,
				-1,
				-1
			],
			"type":"VEC3"
		},
		{
			"bufferView":6,
			"componentType":5126,
			"count":24,
			"type":"VEC3"
		},
		{
			"bufferView":7,
			"componentType":5126,
			"count":24,
			"type":"VEC2"
		},
		{
			"bufferView":8,
			"componentType":5126,
			"count":24,
			"type":"VEC4"
		},
		{
			"bufferView":9,
			"componentType":5126,
			"count":2020,
			"max":[
				0.9999997019767761,
				1,
				0.9999993443489075
			],
			"min":[
				-0.9999990463256836,
				-1,
				-1
			],
			"type":"VEC3"
		},
		{
			"bufferView":10,
			"componentType":5126,
			"count":2020,
			"type":"VEC3"
		},
		{
			"bufferView":11,
			"componentType":5126,
			"count":2020,
			"type":"VEC2"
		},
		{
			"bufferView":12,
			"componentType":5126,
			"count":2020,
			"type":"VEC4"
		},
		{
			"bufferView":13,
			"componentType":5123,
			"count":2880,
			"type":"SCALAR"
		}
	],
	"bufferViews":[
		{
			"buffer":0,
			"byteLength":288,
			"byteOffset":0,
			"target":34962
		},
		{
			"buffer":0,
			"byteLength":288,
			"byteOffset":288,
			"target":34962
		},
		{
			"buffer":0,
			"byteLength":192,
			"byteOffset":576,
			"target":34962
		},
		{
			"buffer":0,
			"byteLength":384,
			"byteOffset":768,
			"target":34962
		},
		{
			"buffer":0,
			"byteLength":72,
			"byteOffset":1152,
			"target":34963
		},
		{
			"buffer":0,
			"byteLength":288,
			"byteOffset":1224,
			"target":34962
		},
		{
			"buffer":0,
			"byteLength":288,
			"byteOffset":1512,
			"target":34962
		},
		{
			"buffer":0,
			"byteLength":192,
			"byteOffset":1800,
			"target":34962
		},
		{
			"buffer":0,
			"byteLength":384,
			"byteOffset":1992,
			"target":34962
		},
		{
			"buffer":0,
			"byteLength":24240,
			"byteOffset":2376,
			"target":34962
		},
		{
			"buffer":0,
			"byteLength":24240,
			"byteOffset":26616,
			"target":34962
		},
		{
			"buffer":0,
			"byteLength":16160,
			"byteOffset":50856,
			"target":34962
		},
		{
			"buffer":0,
			"byteLength":32320,
			"byteOffset":67016,
			"target":34962
		},
		{
			"buffer":0,
			"byteLength":5760,
			"byteOffset":99336,
			"target":34963
		}
	],
	"buffers":[
		{
			"byteLength":105096,
			"uri":"ShadowTest.bin"
		}
	]
}
