{
	"asset":{
		"generator":"Khronos glTF Blender I/O v4.5.48",
		"version":"2.0"
	},
	"scene":0,
	"scenes":[
		{
			"name":"Scene",
			"nodes":[
				0,
				1,
				2,
				3,
				4,
				5,
				6,
				7,
				8,
				9,
				10,
				11,
				12,
				13,
				14,
				15
			]
		}
	],
	"nodes":[
		{
			"camera":0,
			"name":"Camera",
			"rotation":[
				-0.2650972306728363,
				0.168415829539299,
				0.04708677902817726,
				0.9482312202453613
			],
			"translation":[
				11.567776679992676,
				15.925529479980469,
				27.1618595123291
			]
		},
		{
			"mesh":0,
			"name":"Cube.001",
			"scale":[
				1,
				10,
				1
			],
			"translation":[
				-5.480574131011963,
				8.941398620605469,
				4.412564277648926
			]
		},
		{
			"mesh":1,
			"name":"Cube",
			"scale":[
				40,
				0.30000001192092896,
				40
			],
			"translation":[
				0,
				-1.3182015419006348,
				0
			]
		},
		{
			"mesh":0,
			"name":"Cube.002",
			"scale":[
				1,
				10,
				1
			],
			"translation":[
				5.519425868988037,
				8.941398620605469,
				4.412564277648926
			]
		},
		{
			"mesh":0,
			"name":"Cube.003",
			"scale":[
				1,
				10,
				1
			],
			"translation":[
				-5.480574131011963,
				8.941398620605469,
				-4.587435722351074
			]
		},
		{
			"mesh":0,
			"name":"Cube.004",
			"scale":[
				1,
				10,
				1
			],
			"translation":[
				5.519425868988037,
				8.941398620605469,
				-4.587435722351074
			]
		},
		{
			"mesh":0,
			"name":"Cube.005",
			"rotation":[
				0,
				0,
				-0.7071068286895752,
				0.7071067094802856
			],
			"scale":[
				1,
				9.999999046325684,
				1
			],
			"translation":[
				0.14052772521972656,
				3.9413986206054688,
				4.412564277648926
			]
		},
		{
			"mesh":0,
			"name":"Cube.006",
			"rotation":[
				0,
				0,
				-0.7071068286895752,
				0.7071067094802856
			],
			"scale":[
				1,
				9.999999046325684,
				1
			],
			"translation":[
				0.14052772521972656,
				3.9413986206054688,
				-4.587435722351074
			]
		},
		{
			"mesh":0,
			"name":"Cube.007",
			"rotation":[
				-0.4999999403953552,
				0.4999999403953552,
				-0.5000000596046448,
				0.5000000596046448
			],
			"scale":[
				1,
				10,
				1
			],
			"translation":[
				-5.480575084686279,
				3.9413986206054688,
				-0.5874357223510742
			]
		},
		{
			"mesh":0,
			"name":"Cube.008",
			"rotation":[
				-0.4999999403953552,
				0.4999999403953552,
				-0.5000000596046448,
				0.5000000596046448
			],
			"scale":[
				1,
				10,
				1
			],
			"translation":[
				5.519424915313721,
				3.9413986206054688,
				-0.5874357223510742
			]
		},
		{
			"mesh":0,
			"name":"Cube.009",
			"rotation":[
				0,
				0,
				-0.7071068286895752,
				0.7071067094802856
			],
			"scale":[
				1,
				9.999999046325684,
				1
			],
			"translation":[
				0.14052772521972656,
				13.941398620605469,
				4.412564277648926
			]
		},
		{
			"mesh":0,
			"name":"Cube.010",
			"rotation":[
				0,
				0,
				-0.7071068286895752,
				0.7071067094802856
			],
			"scale":[
				1,
				9.999999046325684,
				1
			],
			"translation":[
				0.14052772521972656,
				13.941398620605469,
				-4.587435722351074
			]
		},
		{
			"mesh":0,
			"name":"Cube.011",
			"rotation":[
				-0.4999999403953552,
				0.4999999403953552,
				-0.5000000596046448,
				0.5000000596046448
			],
			"scale":[
				1,
				10,
				1
			],
			"translation":[
				-5.480575084686279,
				13.941398620605469,
				-0.5874357223510742
			]
		},
		{
			"mesh":0,
			"name":"Cube.012",
			"rotation":[
				-0.4999999403953552,
				0.4999999403953552,
				-0.5000000596046448,
				0.5000000596046448
			],
			"scale":[
				1,
				10,
				1
			],
			"translation":[
				5.519424915313721,
				13.941398620605469,
				-0.5874357223510742
			]
		},
		{
			"mesh":2,
			"name":"Sphere",
			"scale":[
				7,
				7,
				7
			],
			"translation":[
				24.47359275817871,
				5.450321674346924,
				25.283248901367188
			]
		},
		{
			"mesh":0,
			"name":"Cube.013",
			"rotation":[
				0,
				-0.9306474328041077,
				0,
				0.36591723561286926
			],
			"scale":[
				17.000001907348633,
				7,
				1
			],
			"translation":[
				-23.613718032836914,
				5.885695457458496,
				-26.225372314453125
			]
		}
	],
	"cameras":[
		{
			"name":"Camera.001",
			"perspective":{
				"aspectRatio":1.7777777777777777,
				"yfov":0.6911503672599792,
				"zfar":1000,
				"znear":0.009999999776482582
			},
			"type":"perspective"
		}
	],
	"materials":[
		{
			"doubleSided":true,
			"name":"Material.001",
			"pbrMetallicRoughness":{
				"baseColorFactor":[
					0.800000011920929,
					0.800000011920929,
					0.800000011920929,
					1
				],
				"metallicFactor":0,
				"roughnessFactor":0.5
			}
		}
	],
	"meshes":[
		{
			"name":"Cube.001",
			"primitives":[
				{
					"attributes":{
						"POSITION":0,
						"NORMAL":1,
						"TEXCOORD_0":2
					},
					"indices":3,
					"material":0
				}
			]
		},
		{
			"name":"Cube.002",
			"primitives":[
				{
					"attributes":{
						"POSITION":4,
						"NORMAL":5,
						"TEXCOORD_0":6
					},
					"indices":3,
					"material":0
				}
			]
		},
		{
			"name":"Sphere",
			"primitives":[
				{
					"attributes":{
						"POSITION":7,
						"NORMAL":8,
						"TEXCOORD_0":9
					},
					"indices":10,
					"material":0
				}
			]
		}
	],
	"accessors":[
		{
			"bufferView":0,
			"componentType":5126,
			"count":24,
			"max":[
				1,
				1,
				1
			],
			"min":[
				-1,
				-1,
				-1
			],
			"type":"VEC3"
		},
		{
			"bufferView":1,
			"componentType":5126,
			"count":24,
			"type":"VEC3"
		},
		{
			"bufferView":2,
			"componentType":5126,
			"count":24,
			"type":"VEC2"
		},
		{
			"bufferView":3,
			"componentType":5123,
			"count":36,
			"type":"SCALAR"
		},
		{
			"bufferView":4,
			"componentType":5126,
			"count":24,
			"max":[
				1,
				1,
				1
			],
			"min":[
				-1,
				-1,
				-1
			],
			"type":"VEC3"
		},
		{
			"bufferView":5,
			"componentType":5126,
			"count":24,
			"type":"VEC3"
		},
		{
			"bufferView":6,
			"componentType":5126,
			"count":24,
			"type":"VEC2"
		},
		{
			"bufferView":7,
			"componentType":5126,
			"count":2020,
			"max":[
				0.9999997019767761,
				1,
				0.9999993443489075
			],
			"min":[
				-0.9999990463256836,
				-1,
				-1
			],
			"type":"VEC3"
		},
		{
			"bufferView":8,
			"componentType":5126,
			"count":2020,
			"type":"VEC3"
		},
		{
			"bufferView":9,
			"componentType":5126,
			"count":2020,
			"type":"VEC2"
		},
		{
			"bufferView":10,
			"componentType":5123,
			"count":2880,
			"type":"SCALAR"
		}
	],
	"bufferViews":[
		{
			"buffer":0,
			"byteLength":288,
			"byteOffset":0,
			"target":34962
		},
		{
			"buffer":0,
			"byteLength":288,
			"byteOffset":288,
			"target":34962
		},
		{
			"buffer":0,
			"byteLength":192,
			"byteOffset":576,
			"target":34962
		},
		{
			"buffer":0,
			"byteLength":72,
			"byteOffset":768,
			"target":34963
		},
		{
			"buffer":0,
			"byteLength":288,
			"byteOffset":840,
			"target":34962
		},
		{
			"buffer":0,
			"byteLength":288,
			"byteOffset":1128,
			"target":34962
		},
		{
			"buffer":0,
			"byteLength":192,
			"byteOffset":1416,
			"target":34962
		},
		{
			"buffer":0,
			"byteLength":24240,
			"byteOffset":1608,
			"target":34962
		},
		{
			"buffer":0,
			"byteLength":24240,
			"byteOffset":25848,
			"target":34962
		},
		{
			"buffer":0,
			"byteLength":16160,
			"byteOffset":50088,
			"target":34962
		},
		{
			"buffer":0,
			"byteLength":5760,
			"byteOffset":66248,
			"target":34963
		}
	],
	"buffers":[
		{
			"byteLength":72008,
			"uri":"ShadowTest.bin"
		}
	]
}
